<?xml version="1.0" encoding="UTF-8" standalone="no"?>
<!-- Created with Inkscape (http://www.inkscape.org/) -->

<svg
   width="191.88336mm"
   height="187.34886mm"
   viewBox="0 0 191.88336 187.34886"
   version="1.1"
   id="svg5"
   xml:space="preserve"
   inkscape:export-filename="logo-algas-transparent.png"
   inkscape:export-xdpi="300"
   inkscape:export-ydpi="300"
   sodipodi:docname="logo-algas-transparent.svg"
   inkscape:version="1.3 (0e150ed6c4, 2023-07-21)"
   xmlns:inkscape="http://www.inkscape.org/namespaces/inkscape"
   xmlns:sodipodi="http://sodipodi.sourceforge.net/DTD/sodipodi-0.dtd"
   xmlns="http://www.w3.org/2000/svg"
   xmlns:svg="http://www.w3.org/2000/svg"><sodipodi:namedview
     id="namedview7"
     pagecolor="#505050"
     bordercolor="#eeeeee"
     borderopacity="1"
     inkscape:showpageshadow="0"
     inkscape:pageopacity="0"
     inkscape:pagecheckerboard="0"
     inkscape:deskcolor="#505050"
     inkscape:document-units="mm"
     showgrid="false"
     inkscape:zoom="1.0343421"
     inkscape:cx="449.07774"
     inkscape:cy="233.48175"
     inkscape:window-width="1920"
     inkscape:window-height="1017"
     inkscape:window-x="-8"
     inkscape:window-y="-8"
     inkscape:window-maximized="1"
     inkscape:current-layer="layer1" /><defs
     id="defs2"><inkscape:path-effect
       effect="bspline"
       id="path-effect1238"
       is_visible="true"
       lpeversion="1"
       weight="33.333333"
       steps="2"
       helper_size="0"
       apply_no_weight="true"
       apply_with_weight="true"
       only_selected="false"
       uniform="false" /><inkscape:path-effect
       effect="bspline"
       id="path-effect1234"
       is_visible="true"
       lpeversion="1"
       weight="33.333333"
       steps="2"
       helper_size="0"
       apply_no_weight="true"
       apply_with_weight="true"
       only_selected="false"
       uniform="false" /><inkscape:path-effect
       effect="bspline"
       id="path-effect1218"
       is_visible="true"
       lpeversion="1"
       weight="33.333333"
       steps="2"
       helper_size="0"
       apply_no_weight="true"
       apply_with_weight="true"
       only_selected="false"
       uniform="false" /><inkscape:path-effect
       effect="bspline"
       id="path-effect1206"
       is_visible="true"
       lpeversion="1"
       weight="33.333333"
       steps="2"
       helper_size="0"
       apply_no_weight="true"
       apply_with_weight="true"
       only_selected="false"
       uniform="false" /><inkscape:path-effect
       effect="bspline"
       id="path-effect1202"
       is_visible="true"
       lpeversion="1"
       weight="33.333333"
       steps="2"
       helper_size="0"
       apply_no_weight="true"
       apply_with_weight="true"
       only_selected="false"
       uniform="false" /><inkscape:path-effect
       effect="bspline"
       id="path-effect1100"
       is_visible="true"
       lpeversion="1"
       weight="33.333333"
       steps="2"
       helper_size="0"
       apply_no_weight="true"
       apply_with_weight="true"
       only_selected="false"
       uniform="false" /></defs><g
     inkscape:label="Layer 1"
     inkscape:groupmode="layer"
     id="layer1"
     transform="translate(-9.0630556,-69.240164)"><ellipse
       style="fill:#ffffff;fill-opacity:0;stroke:#000000;stroke-width:4.5910004;stroke-linejoin:bevel;stroke-dasharray:none"
       id="path354"
       cx="105.00474"
       cy="162.9146"
       rx="94.946182"
       ry="92.678932" /><g
       id="g18107"
       transform="translate(-5.7733292,1.3200234)"
       style="stroke-width:3.2;stroke-dasharray:none"><path
         style="fill:#ffffff;fill-opacity:0;stroke:#000000;stroke-width:3.2;stroke-linejoin:bevel;stroke-dasharray:none"
         d="m 97.722616,196.98597 c 0.110942,1.09656 0.331013,3.27174 1.755303,6.9352 1.424291,3.66347 4.045871,8.7919 6.461371,12.442 2.41549,3.65009 4.62032,5.81542 5.83513,7.75932 1.21482,1.94389 1.43296,3.65102 1.5418,4.6881 0.10883,1.03708 0.10685,1.38827 0.0356,1.90041 -0.0712,0.51214 -0.21033,1.17538 -0.3501,1.84167 1.00556,-0.30158 2.04021,-0.61188 2.99757,-1.2035 0.95736,-0.59162 1.921,-1.5061 2.81763,-2.80389 0.89663,-1.2978 1.73967,-2.99195 2.27172,-4.80455 0.53206,-1.8126 0.7524,-3.73938 0.65397,-5.39052 -0.0984,-1.65115 -0.51533,-3.01681 -1.12748,-4.46407 -0.61214,-1.44726 -1.41869,-2.97374 -2.25492,-4.42726 -0.83623,-1.45351 -1.69698,-2.82538 -2.39941,-3.97296 -0.70243,-1.14759 -1.23605,-2.05367 -1.99666,-3.13196 -0.76061,-1.07828 -1.73346,-2.30763 -2.53909,-3.29699 -0.80563,-0.98935 -1.43152,-1.72331 -2.06138,-2.56607 -0.62985,-0.84275 -1.24984,-1.77562 -2.12421,-3.13812 -0.87437,-1.3625 -1.98344,-3.12405 -2.93187,-5.2155 -0.94843,-2.09145 -1.72414,-4.48827 -2.10466,-6.05264 -0.38053,-1.56436 -0.362,-2.27742 -0.90418,-1.51108 -0.54217,0.76635 -1.632949,2.9966 -2.340783,5.79688 -0.707833,2.80028 -1.026018,6.14852 -1.186166,7.83375 -0.160148,1.68523 -0.160168,1.68523 -0.04922,2.78178 z"
         id="path1098"
         sodipodi:nodetypes="cccccccaccccccccccccccc"
         inkscape:original-d="m 97.611673,195.88942 c 0.22217,2.19308 0.44224,4.36826 0.66326,6.55565 2.627407,5.1395 5.248987,10.26794 7.872397,15.40026 2.20746,2.16792 4.41227,4.33327 6.62248,6.50389 0.2197,1.71713 0.43785,3.42425 0.65725,5.1434 -10e-4,0.35506 -0.004,0.70624 -0.006,1.06118 -0.14004,0.66942 -0.4193,1.99887 -0.4193,1.99887 0,0 2.04032,-0.6115 3.01667,-0.90473 1.15341,-0.66367 1.9022,-1.80455 2.85242,-2.70689 0.84312,-1.69338 1.68615,-3.38754 2.52912,-5.08249 0.22111,-1.93039 0.44146,-3.85717 0.6622,-5.79043 -0.41774,-1.36913 -0.83464,-2.7348 -1.25234,-4.10229 -0.80667,-1.52703 -1.61322,-3.05351 -2.42139,-4.58274 -0.86433,-1.37779 -1.72508,-2.74966 -2.59166,-4.13062 -0.53826,-0.91421 -1.07188,-1.8203 -1.61133,-2.73603 -0.98183,-1.24081 -1.95468,-2.47016 -2.93543,-3.70939 -0.63053,-0.73947 -1.25642,-1.47343 -1.88877,-2.2149 -0.62731,-0.94406 -1.24729,-1.87694 -1.87562,-2.82218 -1.1204,-1.77976 -2.22947,-3.54131 -3.34716,-5.31632 -0.77907,-2.4079 -1.55477,-4.80472 -2.33472,-7.21394 0.019,-0.71943 0.0376,-1.43249 0.056,-2.15534 -1.10276,2.25571 -2.193527,4.48597 -3.290407,6.72774 -0.31882,3.35863 -0.63701,6.70687 -0.95765,10.0773 z"
         inkscape:path-effect="#path-effect1100" /><path
         style="fill:#ffffff;fill-opacity:0;stroke:#000000;stroke-width:3.2;stroke-linejoin:bevel;stroke-dasharray:none"
         d="m 120.77725,214.27955 c 0.43028,-1.11628 0.86196,-2.23616 1.48694,-5.12294 0.62499,-2.88678 1.43962,-7.52118 1.29215,-11.81778 -0.14747,-4.2966 -1.25847,-8.24088 -2.9558,-12.04119 -1.69733,-3.80031 -3.97916,-7.45299 -5.7309,-9.86479 -1.75174,-2.4118 -2.97021,-3.577 -4.18554,-4.79626 -1.21533,-1.21925 -2.4346,-2.49959 -3.6569,-3.7831 m 0,0 c -0.83121,-0.95105 -1.65632,-1.89513 -2.67605,-2.92452 -1.01973,-1.02939 -2.20262,-2.11247 -4.04448,-3.96701 -1.841856,-1.85454 -4.309658,-4.44778 -6.377789,-7.6335 -2.06813,-3.18573 -3.709524,-6.92647 -4.50777,-11.43073 -0.798246,-4.50426 -0.751611,-9.74503 -0.363188,-11.87623 0.388424,-2.13119 1.106488,-1.11059 1.615282,-0.17677 0.508793,0.93382 0.795087,1.75674 1.156389,2.53817 0.361302,0.78142 0.789399,1.50319 2.352043,3.48687 1.562644,1.98368 4.242891,5.20765 5.977643,7.26203 1.73475,2.05439 2.49611,2.90622 3.63564,3.92289 1.13952,1.01666 2.64848,2.18952 4.49318,3.71145 1.8447,1.52194 4.02514,3.39268 5.56648,4.69184 1.54133,1.29916 2.44266,2.02618 5.36073,5.36238 2.91808,3.33621 7.87,9.30151 10.51902,15.15828 2.64902,5.85678 2.98858,11.57734 3.03082,15.39566 0.0422,3.81832 -0.21332,5.72274 -0.62085,8.18353 -0.40753,2.46079 -0.96662,5.47547 -1.73144,8.18227 -0.76482,2.7068 -1.73516,5.10521 -2.78959,7.36376 -1.05444,2.25854 -2.19011,4.3715 -3.03301,5.91834 -0.8429,1.54685 -1.38776,2.51794 -1.8719,3.30019 -0.48415,0.78224 -0.89961,1.36344 -1.35019,1.87724 -0.45058,0.5138 -0.92433,0.94544 -1.39408,1.37345"
         id="path1200"
         sodipodi:nodetypes="cccccccccccccccccccccccccccccc"
         inkscape:original-d="m 120.77725,214.27955 c 0.43067,-1.11613 0.86234,-2.23601 1.29416,-3.35742 0.81814,-4.65224 1.63277,-9.28664 2.44915,-13.93318 -1.11148,-3.94678 -2.22248,-7.89106 -3.33407,-11.8366 -2.28318,-3.65508 -4.56415,-7.3083 -6.85104,-10.96696 -1.21755,-1.16434 -2.43601,-2.32955 -3.65044,-3.49089 -1.21606,-1.27733 -2.4355,-2.55751 -3.65781,-3.84101 m 0,0 c 0,0 -1.65628,-1.89516 -2.49362,-2.85316 -1.20216,-1.10075 -2.38505,-2.18383 -3.58245,-3.28022 -2.486297,-2.61271 -4.954097,-5.20595 -7.441632,-7.81988 -1.648586,-3.75757 -3.289979,-7.49831 -4.93347,-11.24339 0.04716,-5.26337 0.0938,-10.50414 0.14063,-15.80365 0.729764,1.03707 1.447827,2.05767 2.175391,3.09193 0.290142,0.83336 0.576434,1.65628 0.866174,2.48972 0.43278,0.72942 0.860877,1.45119 1.29141,2.17731 2.69469,3.24126 5.37494,6.46523 8.075917,9.71423 0.76851,0.85978 1.52987,1.71162 2.2966,2.56952 1.51227,1.17548 3.02123,2.34833 4.52689,3.51859 2.18364,1.87373 4.36408,3.74447 6.5413,5.6122 0.90537,0.7307 1.80688,1.4575 2.70649,2.18309 4.9366,5.94675 9.88853,11.91205 14.8457,17.88377 0.34113,5.74185 0.68069,11.46241 1.02057,17.19364 -0.25535,1.90548 -0.51091,3.8099 -0.76696,5.71519 -0.55902,3.01631 -1.11809,6.03099 -1.67753,9.04553 -0.97019,2.39914 -1.94052,4.79756 -2.91187,7.19736 -1.13753,2.11733 -2.2732,4.23029 -3.41218,6.34851 -0.54683,0.97548 -1.09167,1.94658 -1.63963,2.9223 -0.42036,0.58881 -0.83582,1.17 -1.25957,1.76204 -0.47747,0.43564 -0.95122,0.86728 -1.42127,1.29496"
         inkscape:path-effect="#path-effect1202" /><path
         style="fill:#ffffff;fill-opacity:0;stroke:#000000;stroke-width:3.2;stroke-linejoin:bevel;stroke-dasharray:none"
         d="m 113.85461,154.45775 c 0.38692,0.32195 0.77048,0.64109 0.9501,0.79868 0.17962,0.15759 0.15524,0.15626 0.15156,0.11529 -0.004,-0.041 0.0172,-0.12353 0.0477,-0.30292 0.0305,-0.1794 0.0705,-0.45611 0.14255,-0.80279 0.0721,-0.34669 0.17636,-0.76296 0.27633,-1.1925 0.1,-0.42954 0.19556,-0.87249 0.26874,-1.65371 0.0732,-0.78123 0.12358,-1.90136 0.14538,-2.94921 0.0218,-1.04785 0.0148,-2.02357 -0.0423,-2.88199 -0.0571,-0.85842 -0.1649,-1.59993 -0.2776,-2.17081 -0.1127,-0.57088 -0.23089,-0.97136 -0.30765,-1.28275 -0.0767,-0.31138 -0.11152,-0.53347 -0.23186,-0.90226 -0.12033,-0.36879 -0.32718,-0.88458 -0.72172,-1.83117 -0.39453,-0.94659 -0.97683,-2.32401 -1.56352,-3.74633 -0.58669,-1.42233 -1.17769,-2.88955 -1.8598,-4.42899 -0.6821,-1.53943 -1.45561,-3.15107 -2.24054,-4.92229 -0.78492,-1.77123 -1.58103,-3.70205 -2.33648,-5.81978 -0.75545,-2.11772 -1.46987,-4.42233 -1.74608,-6.35062 -0.27621,-1.92828 -0.11281,-3.47925 0.40937,-5.58951 0.52219,-2.11025 1.40346,-4.77893 2.23181,-6.69273 0.82836,-1.9138 1.6036,-3.07155 2.53885,-4.340509 0.93525,-1.268959 2.03032,-2.648803 2.75083,-3.551736 0.72051,-0.902934 1.0664,-1.328894 1.736,-1.923889 0.66959,-0.594995 1.66212,-1.358339 2.06396,-1.397182 0.40185,-0.03884 0.21412,0.64441 0.0438,1.328979 -0.17032,0.684568 -0.32327,1.370229 -0.40562,2.121821 -0.0823,0.751592 -0.0945,1.568358 -0.0987,2.26499 -0.004,0.696631 -6e-4,1.273079 0.085,2.006924 0.0856,0.733845 0.25244,1.624612 0.44981,2.566992 0.19737,0.94239 0.42508,1.93631 0.88426,3.33564 0.45919,1.39933 1.14926,3.20394 1.70722,4.66873 0.55796,1.4648 0.98383,2.58979 1.47922,3.90592 0.49538,1.31613 1.0603,2.82341 1.46721,3.84586 0.4069,1.02244 0.65547,1.56007 0.89436,2.11347 0.2389,0.55339 0.46833,1.12256 0.97827,2.79666 0.50994,1.67411 1.30083,4.45322 1.82818,6.56479 0.52736,2.11156 0.79156,3.55572 1.05514,4.99642"
         id="path1204"
         inkscape:path-effect="#path-effect1206"
         inkscape:original-d="m 113.85461,154.45775 c 0.38676,0.32214 0.77031,0.64129 1.15065,0.95742 -0.0211,0.002 -0.0455,9.4e-4 -0.073,-0.004 0.024,-0.0795 0.0449,-0.16205 0.0626,-0.24757 0.0432,-0.27368 0.0832,-0.55039 0.11996,-0.83009 0.10747,-0.41326 0.21184,-0.82952 0.31288,-1.24878 0.0989,-0.43995 0.19437,-0.88292 0.2868,-1.32888 0.0536,-1.11713 0.10407,-2.23726 0.15122,-3.36041 -0.004,-0.97272 -0.0109,-1.94844 -0.0209,-2.92717 -0.10456,-0.73849 -0.21233,-1.48 -0.32332,-2.2245 -0.11499,-0.39749 -0.23319,-0.79797 -0.35459,-1.20145 -0.0315,-0.21909 -0.0663,-0.44117 -0.10432,-0.66626 -0.20364,-0.51276 -0.41049,-1.02855 -0.62054,-1.54732 -0.5791,-1.37441 -1.16141,-2.75183 -1.74691,-4.13226 -0.58779,-1.46422 -1.17878,-2.93145 -1.77299,-4.40167 -0.77029,-1.60864 -1.5438,-3.22028 -2.32052,-4.83492 -0.79289,-1.92781 -1.589,-3.85863 -2.3883,-5.79245 -0.7112,-2.30159 -1.42561,-4.6062 -2.14324,-6.91379 0.16661,-1.54796 0.33001,-3.09893 0.49019,-4.65289 0.88449,-2.66567 1.76576,-5.33435 2.64382,-8.00602 0.77846,-1.154767 1.5537,-2.312517 2.32574,-3.473284 1.09829,-1.376838 2.19337,-2.756681 3.28524,-4.139539 0.34912,-0.422967 0.69501,-0.84893 1.0377,-1.277907 0.99574,-0.760336 1.98827,-1.523676 2.97758,-2.290031 -0.18452,0.686252 -0.37224,1.369508 -0.56318,2.049739 -0.14976,0.688696 -0.30271,1.374358 -0.45888,2.057042 -0.008,0.819739 -0.0211,1.636491 -0.0365,2.450218 0.007,0.579466 0.01,1.155918 0.0109,1.729364 0.17007,0.893784 0.33694,1.784551 0.50061,2.672318 0.23092,0.99693 0.45862,1.99085 0.68312,2.98177 0.69328,1.8076 1.38335,3.61221 2.07021,5.41381 0.42908,1.12799 0.85494,2.25298 1.2776,3.37497 0.56813,1.51028 1.13305,3.01756 1.69476,4.52183 0.25176,0.54061 0.50033,1.07824 0.74569,1.61284 0.23265,0.57219 0.4621,1.14135 0.68833,1.70753 0.79411,2.78211 1.585,5.56122 2.37267,8.33733 0.26742,1.44717 0.53163,2.89133 0.79263,4.3325" /><path
         style="fill:#ffffff;fill-opacity:0;stroke:#000000;stroke-width:3.2;stroke-linejoin:bevel;stroke-dasharray:none"
         d="m 126.31405,131.50042 c 0.44559,2.75689 0.89212,5.51957 1.20064,7.77721 0.30853,2.25765 0.48061,4.01856 0.54908,5.84727 0.0685,1.8287 0.0337,3.72554 -0.0107,5.42513 -0.0444,1.69959 -0.0982,3.20201 -0.18443,4.30553 -0.0862,1.10351 -0.20439,1.8086 -0.31036,2.59451 -0.10597,0.78591 -0.19983,1.65241 -0.30509,2.35487 -0.10526,0.70246 -0.22172,1.24128 -0.3642,2.0879 -0.14248,0.84662 -0.31108,2.00074 -0.52585,3.01317 -0.21477,1.01242 -0.4755,1.88378 -0.73568,2.75326"
         id="path1216"
         inkscape:path-effect="#path-effect1218"
         inkscape:original-d="m 126.31405,131.50042 c 0,0 0.89212,5.51957 1.33677,8.27067 0.17529,1.76391 0.34737,3.52482 0.51624,5.28273 -0.0315,1.89984 -0.0663,3.79668 -0.10431,5.69051 -0.0507,1.50541 -0.10456,3.00783 -0.16166,4.50725 -0.11499,0.7081 -0.23318,1.41319 -0.35459,2.11527 -0.0906,0.86951 -0.18452,1.73601 -0.28159,2.5995 -0.11329,0.54184 -0.22972,1.08067 -0.34939,1.6165 -0.16539,1.15713 -0.334,2.31125 -0.50581,3.46236 -0.25753,0.87435 -0.51826,1.74571 -0.78221,2.61406"
         sodipodi:nodetypes="cccccccccc" /><path
         style="fill:#ffffff;fill-opacity:0;stroke:#000000;stroke-width:3.2;stroke-linejoin:bevel;stroke-dasharray:none"
         d="m 120.22852,184.48643 c -0.0368,0.0737 -0.073,0.14631 -0.14308,0.33521 -0.0701,0.18889 -0.17391,0.49352 -0.36904,1.04612 -0.19512,0.55261 -0.4815,1.35325 -0.66275,1.91385 -0.18125,0.5606 -0.25745,0.88069 -0.36931,1.32258 -0.11187,0.44189 -0.25936,1.00568 -0.44066,1.67607 -0.1813,0.67038 -0.39639,1.44743 -0.5755,2.17268 -0.17911,0.72525 -0.3223,1.39846 -0.43785,1.91779 -0.11556,0.51933 -0.20344,0.88488 -0.28359,1.27504 -0.0802,0.39015 -0.15267,0.80464 -0.26639,1.36899 -0.11373,0.56436 -0.2686,1.27876 -0.37946,1.88713 -0.11085,0.60836 -0.17783,1.11036 -0.27646,1.86961 -0.0986,0.75925 -0.22892,1.77571 -0.30018,2.34658 -0.0712,0.57087 -0.0836,0.69627 -0.0908,0.78782 -0.007,0.0915 -0.01,0.14892 -0.007,0.18331 0.003,0.0344 0.008,0.0453 -0.0137,0.0488 -0.0219,0.004 -0.0725,0.004 -0.12631,0.004"
         id="path1232"
         inkscape:path-effect="#path-effect1234"
         inkscape:original-d="m 120.22852,184.48643 c -0.033,0.0756 -0.0693,0.14817 -0.10869,0.21775 -0.10067,0.30764 -0.20451,0.61227 -0.31158,0.9139 -0.28317,0.80365 -0.56955,1.60429 -0.85914,2.40193 -0.073,0.32308 -0.1492,0.64317 -0.22861,0.96025 -0.14429,0.5668 -0.29179,1.13059 -0.44249,1.69139 -0.21188,0.78003 -0.42697,1.55708 -0.64527,2.33111 -0.13999,0.67621 -0.28318,1.34942 -0.42958,2.01962 -0.0847,0.36857 -0.17254,0.73413 -0.26364,1.0967 -0.0693,0.41748 -0.14182,0.83196 -0.21755,1.24343 -0.15166,0.71741 -0.30653,1.43181 -0.46461,2.1432 -0.0638,0.50501 -0.13075,1.00701 -0.20095,1.50602 -0.12707,1.01947 -0.25736,2.03593 -0.39086,3.04938 -0.008,0.12829 -0.0213,0.25359 -0.0369,0.37586 6.4e-4,0.0606 -10e-4,0.118 -0.007,0.17249 0.008,0.0138 0.0143,0.0244 0.0166,0.0321 -0.0474,0.004 -0.098,0.004 -0.15182,0" /><path
         style="fill:#ffffff;fill-opacity:0;stroke:#000000;stroke-width:3.2;stroke-linejoin:bevel;stroke-dasharray:none"
         d="m 110.6841,170.63659 c -0.33918,0.77892 -0.67777,1.55648 -0.90267,2.14124 -0.2249,0.58477 -0.33614,0.97614 -0.55992,1.87216 -0.22377,0.89602 -0.56012,2.2965 -0.79349,3.24396 -0.23336,0.94745 -0.36373,1.44198 -0.48059,1.94028 -0.11686,0.49829 -0.22029,1.00011 -0.39803,1.81531 -0.17775,0.81519 -0.42979,1.94381 -0.66922,3.0227 -0.23944,1.07889 -0.46628,2.10802 -0.59398,2.71646 -0.12769,0.60844 -0.15636,0.79594 -0.19943,1.02185 -0.0431,0.2259 -0.10042,0.49043 -0.13368,0.86519 -0.0333,0.37477 -0.0428,0.85899 -0.0521,1.14133 -0.009,0.28233 -0.0179,0.36299 -0.0429,0.41251 -0.025,0.0495 -0.0678,0.0712 -0.11198,0.0935"
         id="path1236"
         inkscape:path-effect="#path-effect1238"
         inkscape:original-d="m 110.6841,170.63659 c -0.33539,0.78057 -0.67397,1.55813 -1.01577,2.33268 -0.10808,0.39439 -0.21929,0.78577 -0.33374,1.17415 -0.33314,1.40348 -0.66949,2.80396 -1.00904,4.20143 -0.12715,0.49754 -0.25752,0.99207 -0.39109,1.48361 -0.10019,0.50482 -0.20364,1.00664 -0.31028,1.50545 -0.24883,1.13165 -0.50087,2.26027 -0.75612,3.3859 -0.22363,1.03213 -0.45047,2.06126 -0.68051,3.08737 -0.0255,0.1905 -0.0542,0.378 -0.086,0.5625 -0.0542,0.26756 -0.11147,0.53211 -0.17209,0.79367 -0.006,0.48723 -0.0159,0.97145 -0.0287,1.45267 -0.006,0.0837 -0.0142,0.16442 -0.0261,0.24211 -0.0397,0.0246 -0.0825,0.0463 -0.12854,0.0649" /></g></g></svg>
